<svg xmlns="http://www.w3.org/2000/svg" viewBox="0 0 32 32" fill="none" role="img" aria-label="RandomManager">
  <defs>
    <linearGradient id="dice-top" x1="4" y1="4" x2="28" y2="18" gradientUnits="userSpaceOnUse">
      <stop stop-color="#a78bfa"/>
      <stop offset="0.5" stop-color="#7c5cff"/>
      <stop offset="1" stop-color="#22d3ee"/>
    </linearGradient>
    <linearGradient id="dice-left" x1="4" y1="11" x2="16" y2="30" gradientUnits="userSpaceOnUse">
      <stop stop-color="#5b21b6"/>
      <stop offset="1" stop-color="#6d28d9"/>
    </linearGradient>
    <linearGradient id="dice-right" x1="16" y1="11" x2="28" y2="30" gradientUnits="userSpaceOnUse">
      <stop stop-color="#0891b2"/>
      <stop offset="1" stop-color="#0e7490"/>
    </linearGradient>
  </defs>
  <rect width="32" height="32" rx="7" fill="#0a0b0f"/>
  <path d="M16 5.5 26.5 11.5 16 17.5 5.5 11.5 16 5.5Z" fill="url(#dice-top)"/>
  <path d="M5.5 11.5 16 17.5 16 26.5 5.5 20.5 5.5 11.5Z" fill="url(#dice-left)"/>
  <path d="M16 17.5 26.5 11.5 26.5 20.5 16 26.5 16 17.5Z" fill="url(#dice-right)"/>
  <circle cx="11.5" cy="10.5" r="1.15" fill="#fff" fill-opacity="0.95"/>
  <circle cx="20.5" cy="10.5" r="1.15" fill="#fff" fill-opacity="0.95"/>
  <circle cx="16" cy="13.5" r="1.15" fill="#fff" fill-opacity="0.95"/>
  <circle cx="11.5" cy="16.5" r="1.15" fill="#fff" fill-opacity="0.95"/>
  <circle cx="20.5" cy="16.5" r="1.15" fill="#fff" fill-opacity="0.95"/>
</svg>
